<?xml version="1.0" standalone="no"?>
<!DOCTYPE svg PUBLIC "-//W3C//DTD SVG 20010904//EN"
 "http://www.w3.org/TR/2001/REC-SVG-20010904/DTD/svg10.dtd">
<svg version="1.0" xmlns="http://www.w3.org/2000/svg"
 width="256.000000pt" height="256.000000pt" viewBox="0 0 256.000000 256.000000"
 preserveAspectRatio="xMidYMid meet">

<g transform="translate(0.000000,256.000000) scale(0.100000,-0.100000)"
fill="#000000" stroke="none">
<path d="M210 2160 l0 -301 63 53 c35 29 201 161 370 293 168 132 306 243 307
248 0 4 -166 7 -370 7 l-370 0 0 -300z"/>
<path d="M949 1921 c-77 -63 -491 -388 -579 -454 -52 -40 -112 -89 -132 -109
l-38 -38 0 -567 c0 -341 4 -574 10 -583 8 -13 136 -15 1039 -18 661 -1 1038 1
1055 8 l26 10 0 259 c0 197 -3 262 -12 268 -7 4 -300 8 -651 8 -621 0 -639 1
-653 19 -12 17 -14 116 -14 617 0 329 -4 600 -8 603 -5 3 -24 -8 -43 -23z"/>
</g>
</svg>
